<?xml version="1.0" encoding="UTF-8"?>
<svg width="68px" height="36px" viewBox="0 0 68 36" version="1.1" xmlns="http://www.w3.org/2000/svg" xmlns:xlink="http://www.w3.org/1999/xlink">
    <title>corona</title>
    <g id="Page-1" stroke="none" stroke-width="1" fill="none" fill-rule="evenodd">
        <g id="Home-Page" transform="translate(-120.000000, -27.000000)" fill="#FFFFFF" fill-rule="nonzero">
            <g id="corona" transform="translate(120.000000, 27.000000)">
                <polygon id="Path" points="4.6879 35.7602 61.9787 35.7602 61.9787 32.8132 4.6879 32.8132"></polygon>
                <path d="M47.3963,13.363 L44.7916,13.363 C44.7916,13.3609 43.3734,15.6394 39.6032,17.8374 C38.5966,18.4247 34.8943,10.7597 34.8943,10.7597 L32.2903,10.7597 C32.2903,10.7597 28.5922,18.4373 27.58,17.8479 C23.814,15.6541 22.3944,13.3637 22.3944,13.3637 L19.7904,13.3637 C9.1966,27.0361 4.1657,10.2382 4.1657,10.2382 L2.0832,10.2382 C2.331,18.9119 4.6879,29.6884 4.6879,29.6884 L62.4995,29.6884 C62.4995,29.6884 64.8564,18.9112 65.1042,10.2382 L63.0217,10.2382 C63.0217,10.2382 57.9901,27.0361 47.3963,13.363 Z" id="Path"></path>
                <circle id="Oval" cx="2.604" cy="5.0302" r="2.604"></circle>
                <circle id="Oval" cx="20.8334" cy="7.1134" r="3.1248"></circle>
                <path d="M32.5675,5.0659 C32.6088,6.2657 32.718,7.2716 32.8986,7.4578 C33.3711,7.9457 33.8296,7.9163 34.2755,7.4578 C34.4449,7.2828 34.552,6.2734 34.5926,5.068 C35.875,5.0281 36.9726,4.9098 37.1504,4.7075 C37.5963,4.1972 37.5963,3.6148 37.1504,3.1045 C36.9726,2.9015 35.8764,2.7783 34.5947,2.7349 C34.5541,1.5372 34.4491,0.5348 34.2755,0.3549 C33.8163,-0.1183 33.3571,-0.1183 32.8986,0.3549 C32.7236,0.5348 32.6144,1.5365 32.5703,2.7328 C31.2963,2.7741 30.205,2.8959 30.0223,3.1045 C29.5624,3.6309 29.5897,4.2133 30.0223,4.7075 C30.1945,4.9042 31.2879,5.0239 32.5675,5.0659 Z" id="Path"></path>
                <circle id="Oval" cx="46.3547" cy="7.1134" r="3.1248"></circle>
                <circle id="Oval" cx="64.5834" cy="5.0302" r="2.604"></circle>
            </g>
        </g>
    </g>
</svg>